<mxfile host="app.diagrams.net" modified="2024-03-29T01:20:43.926Z" agent="Mozilla/5.0 (Windows NT 10.0; Win64; x64) AppleWebKit/537.36 (KHTML, like Gecko) Chrome/123.0.0.0 Safari/537.36" etag="ohlpPrYS37c7gfxxPREi" version="24.1.0" type="github">
  <diagram name="Page-1" id="b5b7bab2-c9e2-2cf4-8b2a-24fd1a2a6d21">
    <mxGraphModel dx="1290" dy="557" grid="1" gridSize="10" guides="1" tooltips="1" connect="1" arrows="1" fold="1" page="1" pageScale="1" pageWidth="827" pageHeight="1169" background="none" math="0" shadow="0">
      <root>
        <mxCell id="0" />
        <mxCell id="1" parent="0" />
        <mxCell id="O1tDvJqXqRr5U-jAChDT-1" value="Passageiro" style="shape=module;align=left;spacingLeft=20;align=center;verticalAlign=top;whiteSpace=wrap;html=1;" vertex="1" parent="1">
          <mxGeometry x="150" y="80" width="100" height="50" as="geometry" />
        </mxCell>
        <mxCell id="O1tDvJqXqRr5U-jAChDT-2" value="Voo" style="shape=module;align=left;spacingLeft=20;align=center;verticalAlign=top;whiteSpace=wrap;html=1;" vertex="1" parent="1">
          <mxGeometry x="490" y="80" width="100" height="50" as="geometry" />
        </mxCell>
        <mxCell id="O1tDvJqXqRr5U-jAChDT-3" value="Pagamento" style="shape=module;align=left;spacingLeft=20;align=center;verticalAlign=top;whiteSpace=wrap;html=1;" vertex="1" parent="1">
          <mxGeometry x="330" y="180" width="100" height="50" as="geometry" />
        </mxCell>
        <mxCell id="O1tDvJqXqRr5U-jAChDT-4" value="Passagem&lt;div&gt;&lt;br&gt;&lt;/div&gt;" style="shape=module;align=left;spacingLeft=20;align=center;verticalAlign=top;whiteSpace=wrap;html=1;" vertex="1" parent="1">
          <mxGeometry x="330" y="80" width="100" height="50" as="geometry" />
        </mxCell>
        <mxCell id="O1tDvJqXqRr5U-jAChDT-8" value="" style="endArrow=open;endSize=12;dashed=1;html=1;rounded=0;exitX=1;exitY=0.5;exitDx=0;exitDy=0;entryX=0;entryY=0;entryDx=0;entryDy=15;entryPerimeter=0;" edge="1" parent="1" source="O1tDvJqXqRr5U-jAChDT-1" target="O1tDvJqXqRr5U-jAChDT-4">
          <mxGeometry x="0.1231" y="40" width="160" relative="1" as="geometry">
            <mxPoint x="250" y="160" as="sourcePoint" />
            <mxPoint x="410" y="160" as="targetPoint" />
            <mxPoint as="offset" />
          </mxGeometry>
        </mxCell>
        <mxCell id="O1tDvJqXqRr5U-jAChDT-9" value="" style="endArrow=open;endSize=12;dashed=1;html=1;rounded=0;exitX=1;exitY=0.25;exitDx=0;exitDy=0;entryX=0;entryY=0;entryDx=0;entryDy=15;entryPerimeter=0;" edge="1" parent="1" source="O1tDvJqXqRr5U-jAChDT-4" target="O1tDvJqXqRr5U-jAChDT-2">
          <mxGeometry x="0.1231" y="40" width="160" relative="1" as="geometry">
            <mxPoint x="260" y="115" as="sourcePoint" />
            <mxPoint x="340" y="105" as="targetPoint" />
            <mxPoint as="offset" />
          </mxGeometry>
        </mxCell>
        <mxCell id="O1tDvJqXqRr5U-jAChDT-10" value="" style="endArrow=open;endSize=12;dashed=1;html=1;rounded=0;exitX=0.5;exitY=1;exitDx=0;exitDy=0;" edge="1" parent="1" source="O1tDvJqXqRr5U-jAChDT-4" target="O1tDvJqXqRr5U-jAChDT-3">
          <mxGeometry x="0.1231" y="40" width="160" relative="1" as="geometry">
            <mxPoint x="270" y="125" as="sourcePoint" />
            <mxPoint x="350" y="115" as="targetPoint" />
            <mxPoint as="offset" />
          </mxGeometry>
        </mxCell>
      </root>
    </mxGraphModel>
  </diagram>
</mxfile>
